<svg width="1200" height="600" viewBox="0 0 1200 600" xmlns="http://www.w3.org/2000/svg">
  <defs>
    <linearGradient id="skyGradient" x1="0%" y1="0%" x2="0%" y2="100%">
      <stop offset="0%" style="stop-color:#87CEEB;stop-opacity:1" />
      <stop offset="100%" style="stop-color:#98FB98;stop-opacity:1" />
    </linearGradient>
    <linearGradient id="groundGradient" x1="0%" y1="0%" x2="0%" y2="100%">
      <stop offset="0%" style="stop-color:#90EE90;stop-opacity:1" />
      <stop offset="100%" style="stop-color:#228B22;stop-opacity:1" />
    </linearGradient>
  </defs>
  
  <!-- Sky background -->
  <rect width="1200" height="300" fill="url(#skyGradient)"/>
  
  <!-- Ground -->
  <rect y="300" width="1200" height="300" fill="url(#groundGradient)"/>
  
  <!-- Rolling hills -->
  <path d="M0,300 Q200,250 400,280 Q600,200 800,250 Q1000,220 1200,280 L1200,600 L0,600 Z" fill="#32CD32" opacity="0.8"/>
  <path d="M0,350 Q300,300 600,320 Q900,280 1200,300 L1200,600 L0,600 Z" fill="#228B22" opacity="0.6"/>
  
  <!-- Barn -->
  <g transform="translate(800, 200)">
    <rect x="0" y="0" width="120" height="80" fill="#8B4513"/>
    <polygon points="0,0 60,-20 120,0" fill="#DC143C"/>
    <rect x="20" y="20" width="30" height="40" fill="#654321"/>
    <rect x="70" y="20" width="30" height="40" fill="#654321"/>
    <rect x="45" y="30" width="30" height="20" fill="#8B4513"/>
  </g>
  
  <!-- Windmill -->
  <g transform="translate(1000, 150)">
    <rect x="0" y="0" width="8" height="60" fill="#8B4513"/>
    <circle cx="4" cy="10" r="15" fill="#F5F5DC"/>
    <line x1="4" y1="10" x2="25" y2="10" stroke="#8B4513" stroke-width="2"/>
    <line x1="4" y1="10" x2="-15" y2="10" stroke="#8B4513" stroke-width="2"/>
    <line x1="4" y1="10" x2="4" y2="-15" stroke="#8B4513" stroke-width="2"/>
    <line x1="4" y1="10" x2="4" y2="35" stroke="#8B4513" stroke-width="2"/>
  </g>
  
  <!-- Cows -->
  <g transform="translate(200, 350)">
    <!-- Cow 1 -->
    <ellipse cx="0" cy="0" rx="25" ry="15" fill="#8B4513"/>
    <circle cx="-15" cy="-5" r="8" fill="#8B4513"/>
    <circle cx="15" cy="-5" r="8" fill="#8B4513"/>
    <circle cx="-20" cy="-8" r="2" fill="white"/>
    <circle cx="10" cy="-8" r="2" fill="white"/>
    <rect x="-5" y="5" width="10" height="15" fill="#8B4513"/>
  </g>
  
  <g transform="translate(400, 340)">
    <!-- Cow 2 -->
    <ellipse cx="0" cy="0" rx="25" ry="15" fill="#8B4513"/>
    <circle cx="-15" cy="-5" r="8" fill="#8B4513"/>
    <circle cx="15" cy="-5" r="8" fill="#8B4513"/>
    <circle cx="-20" cy="-8" r="2" fill="white"/>
    <circle cx="10" cy="-8" r="2" fill="white"/>
    <rect x="-5" y="5" width="10" height="15" fill="#8B4513"/>
  </g>
  
  <g transform="translate(600, 360)">
    <!-- Cow 3 -->
    <ellipse cx="0" cy="0" rx="25" ry="15" fill="#8B4513"/>
    <circle cx="-15" cy="-5" r="8" fill="#8B4513"/>
    <circle cx="15" cy="-5" r="8" fill="#8B4513"/>
    <circle cx="-20" cy="-8" r="2" fill="white"/>
    <circle cx="10" cy="-8" r="2" fill="white"/>
    <rect x="-5" y="5" width="10" height="15" fill="#8B4513"/>
  </g>
  
  <!-- Fence -->
  <g transform="translate(0, 400)">
    <rect x="0" y="0" width="1200" height="20" fill="#8B4513"/>
    <rect x="0" y="0" width="5" height="40" fill="#8B4513"/>
    <rect x="50" y="0" width="5" height="40" fill="#8B4513"/>
    <rect x="100" y="0" width="5" height="40" fill="#8B4513"/>
    <rect x="150" y="0" width="5" height="40" fill="#8B4513"/>
    <rect x="200" y="0" width="5" height="40" fill="#8B4513"/>
    <rect x="250" y="0" width="5" height="40" fill="#8B4513"/>
    <rect x="300" y="0" width="5" height="40" fill="#8B4513"/>
    <rect x="350" y="0" width="5" height="40" fill="#8B4513"/>
    <rect x="400" y="0" width="5" height="40" fill="#8B4513"/>
    <rect x="450" y="0" width="5" height="40" fill="#8B4513"/>
    <rect x="500" y="0" width="5" height="40" fill="#8B4513"/>
    <rect x="550" y="0" width="5" height="40" fill="#8B4513"/>
    <rect x="600" y="0" width="5" height="40" fill="#8B4513"/>
    <rect x="650" y="0" width="5" height="40" fill="#8B4513"/>
    <rect x="700" y="0" width="5" height="40" fill="#8B4513"/>
    <rect x="750" y="0" width="5" height="40" fill="#8B4513"/>
    <rect x="800" y="0" width="5" height="40" fill="#8B4513"/>
    <rect x="850" y="0" width="5" height="40" fill="#8B4513"/>
    <rect x="900" y="0" width="5" height="40" fill="#8B4513"/>
    <rect x="950" y="0" width="5" height="40" fill="#8B4513"/>
    <rect x="1000" y="0" width="5" height="40" fill="#8B4513"/>
    <rect x="1050" y="0" width="5" height="40" fill="#8B4513"/>
    <rect x="1100" y="0" width="5" height="40" fill="#8B4513"/>
    <rect x="1150" y="0" width="5" height="40" fill="#8B4513"/>
  </g>
  
  <!-- Project title overlay -->
  <rect x="50" y="50" width="350" height="60" fill="#228B22" opacity="0.9" rx="10"/>
  <text x="225" y="90" text-anchor="middle" fill="white" font-family="Arial, sans-serif" font-size="24" font-weight="bold">Agro Management System</text>
  
  <!-- Tech icons -->
  <g transform="translate(1000, 100)">
    <circle cx="0" cy="0" r="25" fill="#32CD32" opacity="0.8"/>
    <text x="0" y="5" text-anchor="middle" fill="white" font-family="Arial" font-size="20">🌾</text>
  </g>
  
  <g transform="translate(1100, 200)">
    <circle cx="0" cy="0" r="25" fill="#8B4513" opacity="0.8"/>
    <text x="0" y="5" text-anchor="middle" fill="white" font-family="Arial" font-size="20">💻</text>
  </g>
</svg>
